# xmcd
#
# Track frame offsets:
#   150
#   18415
#   44075
#   66322
#   82630
#   95707
#   114132
#   140570
#   158305
#   175290
#   188495
#   209697
#
# Disc length: 2979 seconds
#
# Revision: 0
# Processed by: cddbd v1.5.2PL0 Copyright (c) Steve Scherf et al.
# Submitted via: uFREEDB ActiveX Control 1.5
#
DISCID=9a0ba10c
DTITLE=Lembranças  - Lembranças
DYEAR=1900
DGENRE=Dance
TTITLE0=Hello ( Lionel Richie )
TTITLE1=Making Love Out Of Nothing At All ( Air Supply )
TTITLE2=Nightshift ( Commodores )
TTITLE3=With You All The Way ( New Edition )
TTITLE4=The Tracks Of My Tears ( Smokey  Robinsona The Mir
TTITLE5=You Got It All ( The Jets )
TTITLE6=Float On ( The Floaters )
TTITLE7=A Woman Needs Love ( Ray Parker Jr. )
TTITLE8=Cherish  ( David Cassidy )
TTITLE9=My Girl ( The Temptations )
TTITLE10=Sara ( Starship )
TTITLE11=Yester-me , Yester-you, Yesterday (Stevie Wonder )
EXTD=
EXTT0=
EXTT1=
EXTT2=
EXTT3=
EXTT4=
EXTT5=
EXTT6=
EXTT7=
EXTT8=
EXTT9=
EXTT10=
EXTT11=
PLAYORDER=
